# xmcd
#
# Track frame offsets:
#	300
#	21993
#	38860
#	55681
#	73100
#	91091
#	109398
#	131665
#	150835
#	167601
#	185343
#	203641
#	222727
#	242118
#	261646
#	278326
#	298490
#	317220
#
# Disc length: 4430 seconds
#
# Revision: 3
# Processed by: cddbd v1.5.2PL0 Copyright (c) Steve Scherf et al.
# Submitted via: audiograbber 1.83.01
#
DISCID=13114a12
DTITLE=Various Artist - SFG323
DYEAR=1900
DGENRE=Karaoke
TTITLE0=Will.I.Am f. Britney Spears - Scream and shout (clean)
TTITLE1=James Arthur - Impossible
TTITLE2=Girls Aloud - Beautiful cause you love me
TTITLE3=Tulisa - Sight of you
TTITLE4=Alicia Keys - Girl on fire
TTITLE5=Bruno Mars - Moonshine
TTITLE6=Olly Murs - Army of two
TTITLE7=Rihanna - Stay
TTITLE8=Pitball f. TJR - Don't stop the party
TTITLE9=Taylor Swift - I Knew you were trouble
TTITLE10=David Guetta f. Taped Ral - Just one last time
TTITLE11=Dappy - Yin yang (clean)
TTITLE12=Gabrielle Aplin - Power of love
TTITLE13=Kelly Clarkson - Catch my breath
TTITLE14=Lawson - Learn to love again
TTITLE15=Rita Ora - Radioactive
TTITLE16=Calvin Harris f. Tinie Tempah - Drinking from the bottle
TTITLE17=One Direction - Kiss you
EXTD=
EXTT0=
EXTT1=
EXTT2=
EXTT3=
EXTT4=
EXTT5=
EXTT6=
EXTT7=
EXTT8=
EXTT9=
EXTT10=
EXTT11=
EXTT12=
EXTT13=
EXTT14=
EXTT15=
EXTT16=
EXTT17=
PLAYORDER=
